HIERARCHY
ROOT Hips
{
 OFFSET 0.000000 0.000000 0.000000
 CHANNELS 6 Xposition Yposition Zposition Yrotation Xrotation Zrotation
 JOINT Chest
 {
  OFFSET 0.000000 9.585900 0.002600
  CHANNELS 3 Yrotation Xrotation Zrotation
  JOINT Chest2
  {
   OFFSET 0.000000 9.601200 -0.005300
   CHANNELS 3 Yrotation Xrotation Zrotation
   JOINT Chest3
   {
    OFFSET 0.000000 9.561800 0.000000
    CHANNELS 3 Yrotation Xrotation Zrotation
    JOINT Chest4
    {
     OFFSET 0.000000 9.552100 0.000000
     CHANNELS 3 Yrotation Xrotation Zrotation
     JOINT Neck
     {
      OFFSET 0.000000 14.453000 0.000000
      CHANNELS 3 Yrotation Xrotation Zrotation
      JOINT Head
      {
       OFFSET 0.000000 8.936500 -0.011300
       CHANNELS 3 Yrotation Xrotation Zrotation
       End Site
       {
        OFFSET 0.000000 17.073600 -0.006000
       }
      }
     }
     JOINT RightCollar
     {
      OFFSET -2.921100 9.558500 0.000000
      CHANNELS 3 Yrotation Xrotation Zrotation
      JOINT RightShoulder
      {
       OFFSET -13.519700 0.000000 0.000000
       CHANNELS 3 Yrotation Xrotation Zrotation
       JOINT RightElbow
       {
        OFFSET 0.000000 -29.696600 0.000000
        CHANNELS 3 Yrotation Xrotation Zrotation
        JOINT RightWrist
        {
         OFFSET 0.000000 -24.004700 0.000000
         CHANNELS 3 Yrotation Xrotation Zrotation
         End Site
         {
          OFFSET 0.000000 -17.728500 0.000000
         }
        }
       }
      }
     }
     JOINT LeftCollar
     {
      OFFSET 2.921100 9.558500 0.000000
      CHANNELS 3 Yrotation Xrotation Zrotation
      JOINT LeftShoulder
      {
       OFFSET 13.519700 0.000000 0.000000
       CHANNELS 3 Yrotation Xrotation Zrotation
       JOINT LeftElbow
       {
        OFFSET 0.000000 -29.696600 0.000000
        CHANNELS 3 Yrotation Xrotation Zrotation
        JOINT LeftWrist
        {
         OFFSET 0.000000 -24.004700 0.000000
         CHANNELS 3 Yrotation Xrotation Zrotation
         End Site
         {
          OFFSET 0.000000 -17.728500 0.000000
         }
        }
       }
      }
     }
    }
   }
  }
 }
 JOINT RightHip
 {
  OFFSET -7.771700 -0.012900 -0.001300
  CHANNELS 3 Yrotation Xrotation Zrotation
  JOINT RightKnee
  {
   OFFSET 0.000000 -40.869800 0.001200
   CHANNELS 3 Yrotation Xrotation Zrotation
   JOINT RightAnkle
   {
    OFFSET 0.000000 -39.717900 0.002100
    CHANNELS 3 Yrotation Xrotation Zrotation
    JOINT RightToe
    {
     OFFSET 0.000000 -4.965400 11.033500
     CHANNELS 3 Yrotation Xrotation Zrotation
     End Site
     {
      OFFSET 0.000000 -1.423100 5.872300
     }
    }
   }
  }
 }
 JOINT LeftHip
 {
  OFFSET 7.771700 -0.012900 -0.001300
  CHANNELS 3 Yrotation Xrotation Zrotation
  JOINT LeftKnee
  {
   OFFSET 0.000000 -40.869800 0.001200
   CHANNELS 3 Yrotation Xrotation Zrotation
   JOINT LeftAnkle
   {
    OFFSET 0.000000 -39.717900 0.002100
    CHANNELS 3 Yrotation Xrotation Zrotation
    JOINT LeftToe
    {
     OFFSET 0.000000 -4.965400 11.033500
     CHANNELS 3 Yrotation Xrotation Zrotation
     End Site
     {
      OFFSET 0.000000 -1.423100 5.872300
     }
    }
   }
  }
 }
}
MOTION
Frames: 14
Frame Time: 0.008333
0.000000 85.388000 0.000000 0.000000 -5.767877 0.000000 0.000000 11.653817 0.000000 0.000000 -5.885947 0.000000 0.000000 -0.000000 0.000000 0.000000 -0.000000 0.000000 0.000000 12.528835 0.000000 0.000000 0.711642 0.000000 0.000000 -0.000000 0.000000 0.000000 0.000000 -90.000000 0.000000 -2.309062 0.000000 0.000000 2.309062 0.000000 0.000000 -0.000000 0.000000 0.000000 -0.000000 90.000000 0.000000 -2.309062 0.000000 0.000000 2.309062 0.000000 0.000000 8.520406 0.000000 0.000000 1.905762 0.000000 -0.000000 -4.658285 0.000000 0.000000 -0.000000 0.000000 0.000000 8.520406 0.000000 0.000000 1.905762 0.000000 -0.000000 -4.658285 0.000000 0.000000 -0.000000 0.000000
-34.811138 57.847254 12.643148 178.458413 -49.333586 -3.066184 3.218920 22.018478 3.080181 1.630155 12.624366 1.589321 2.107126 15.772617 2.057298 1.630160 12.624441 1.589377 1.173430 12.132338 -0.311012 2.369268 -13.249126 -1.085360 1.349176 6.871360 0.400838 -16.605943 -15.734577 -4.350246 -75.135373 -37.153386 142.212648 -1.575066 -0.552725 3.024191 -8.625032 3.969328 -0.016427 14.566257 -10.754229 6.583811 82.771073 -40.670092 -137.778973 8.361687 -4.579015 -7.698009 2.964594 -22.325940 -4.021620 -34.864564 73.502669 -39.020042 6.334936 -13.896505 11.634594 -0.003915 -0.067818 -0.016663 -5.887992 -19.824611 5.208544 87.277226 82.933976 87.007673 0.805456 -21.996325 -17.326327 0.007239 0.013983 -0.009293
-34.811500 57.846644 12.637946 178.460333 -49.340935 -3.059776 3.237208 21.982473 3.064827 1.632136 12.621232 1.586929 2.118891 15.729590 2.034198 1.637560 12.603696 1.579013 1.230042 12.245280 -0.218924 2.436293 -13.040463 -0.930722 1.301233 6.969566 0.434796 -17.567811 -15.884124 -3.832474 -75.525029 -36.798415 142.857819 -2.041485 -0.899580 3.739085 -8.602986 4.042592 0.054268 14.883651 -10.804354 6.509500 83.113005 -40.243912 -138.212873 8.914430 -5.261102 -7.993241 2.963229 -22.321220 -4.030643 -34.901988 73.511213 -39.059929 6.337382 -13.901346 11.638189 -0.004589 -0.071803 -0.016773 -5.858668 -19.815592 5.201504 87.293604 82.934214 87.037386 0.793664 -22.007192 -17.312875 0.007831 0.017179 -0.009683
-34.811708 57.846997 12.630876 178.475977 -49.360818 -3.063843 3.235533 21.979733 3.052838 1.630585 12.628148 1.589794 2.136087 15.650292 1.990721 1.645014 12.582290 1.568636 1.281430 12.368025 -0.120621 2.490682 -12.813815 -0.761848 1.218046 7.046612 0.413498 -18.456747 -16.004799 -3.286625 -75.732642 -36.410066 143.367060 -2.569210 -1.270896 4.290640 -8.594729 4.097289 0.113285 15.217779 -10.849312 6.458293 83.326954 -39.825587 -138.589766 9.503430 -5.941558 -8.152841 2.952798 -22.302773 -4.039924 -34.935146 73.522208 -39.093993 6.351406 -13.907162 11.637822 0.001072 -0.074569 -0.011289 -5.841021 -19.794997 5.194122 87.318546 82.938923 87.076691 0.782881 -22.014080 -17.305247 0.009809 0.015201 -0.008893
-34.811795 57.845335 12.624653 178.478540 -49.372078 -3.058427 3.239942 21.966492 3.038776 1.656914 12.523355 1.544778 2.133738 15.675195 2.007824 1.650694 12.561136 1.557870 1.322191 12.495176 -0.025831 2.543757 -12.573073 -0.574407 1.151886 7.112315 0.400162 -19.285600 -16.132570 -2.777556 -75.745447 -35.983634 143.726815 -3.130877 -1.683268 4.664236 -8.578795 4.068903 0.148359 15.547837 -10.835423 6.451757 83.413944 -39.417216 -138.888478 10.119819 -6.633217 -8.139981 2.935911 -22.296260 -4.053573 -34.932830 73.539628 -39.103086 6.370495 -13.913737 11.639434 -0.026670 -0.078796 -0.017353 -5.829434 -19.784731 5.187629 87.395467 82.937412 87.157095 0.776838 -22.021669 -17.299982 0.010357 0.014737 -0.007103
-34.812809 57.843450 12.617818 178.490889 -49.389401 -3.054487 3.248630 21.879608 3.000867 1.654582 12.524706 1.541813 2.133847 15.667524 2.004060 1.653062 12.540295 1.546799 1.348140 12.623415 0.052692 2.603499 -12.320959 -0.362151 1.112904 7.184200 0.408156 -20.043881 -16.290172 -2.322070 -75.565366 -35.514338 143.931399 -3.709824 -2.145166 4.873885 -8.569164 4.132566 0.188047 15.901884 -10.924142 6.410769 83.378284 -39.020712 -139.084935 10.758771 -7.359306 -7.945339 2.924503 -22.281344 -4.065456 -35.012315 73.549063 -39.189611 6.364137 -13.925267 11.647331 -0.016233 -0.078690 -0.017083 -5.821359 -19.769445 5.173311 87.443975 82.939133 87.211438 0.773455 -22.024393 -17.297199 0.009494 0.013499 -0.004632
-34.812068 57.841838 12.610393 178.496700 -49.417118 -3.055852 3.251193 21.858323 2.988268 1.653230 12.483647 1.525910 2.137691 15.700325 2.014798 1.644545 12.460953 1.510353 1.402950 12.765134 0.153836 2.637886 -12.072257 -0.157362 1.089178 7.253934 0.420056 -20.718264 -16.464339 -1.906672 -75.210576 -35.017330 143.974055 -4.297992 -2.663486 4.968331 -8.552106 4.223602 0.224516 16.251225 -11.053372 6.365116 83.236816 -38.639815 -139.182702 11.417674 -8.139468 -7.573276 2.916650 -22.255455 -4.066047 -35.029450 73.554409 -39.213388 6.360899 -13.919698 11.657017 -0.008454 -0.087198 -0.022208 -5.790720 -19.741036 5.167777 87.447686 82.947543 87.239626 0.766841 -22.031708 -17.293881 0.021843 0.018331 0.001605
-34.811468 57.842681 12.600521 178.511945 -49.472530 -3.063322 3.243681 21.821725 2.965480 1.649270 12.479610 1.520540 2.132842 15.645495 1.989344 1.644714 12.467698 1.513417 1.467865 12.910686 0.283757 2.671540 -11.816782 0.029656 1.086552 7.316151 0.439532 -21.301865 -16.652789 -1.537784 -74.732852 -34.520862 143.852836 -4.887576 -3.243298 5.006454 -8.523793 4.264158 0.249477 16.576476 -11.148931 6.342105 83.018448 -38.284129 -139.198796 12.098136 -8.984274 -7.036928 2.908152 -22.199118 -4.067001 -35.052495 73.557874 -39.238651 6.361977 -13.916733 11.657408 0.004978 -0.094702 -0.018555 -5.789748 -19.684171 5.158322 87.535476 82.949437 87.329753 0.768981 -22.040100 -17.292429 0.019523 0.016066 0.000740
-34.810256 57.841969 12.591907 178.528118 -49.524039 -3.076044 3.229353 21.773914 2.944562 1.652326 12.529348 1.530657 2.112204 15.536357 1.950255 1.644883 12.476938 1.516562 1.516159 13.058004 0.359721 2.712848 -11.552292 0.278710 1.108712 7.360652 0.467133 -21.784930 -16.843216 -1.223483 -74.185836 -34.038404 143.575042 -5.457018 -3.876936 5.006594 -8.491441 4.307790 0.258056 16.873905 -11.263079 6.326478 82.753924 -37.965694 -139.131918 12.800545 -9.900934 -6.373034 2.894922 -22.149721 -4.057142 -35.121852 73.565075 -39.314073 6.362506 -13.923679 11.657097 -0.006208 -0.097335 -0.013394 -5.779041 -19.633256 5.159442 87.599556 82.965339 87.405128 0.766240 -22.049401 -17.288352 0.023163 0.014723 0.003201
-34.808175 57.837662 12.586580 178.533540 -49.555178 -3.087727 3.220663 21.719383 2.935034 1.655213 12.563537 1.535037 2.090335 15.455808 1.926045 1.637472 12.456212 1.508036 1.572445 13.206762 0.471980 2.752132 -11.269340 0.506217 1.151301 7.379940 0.505302 -22.156582 -17.023934 -0.966808 -73.614419 -33.575630 143.148546 -5.971748 -4.538896 4.937074 -8.456380 4.345281 0.253903 17.125077 -11.385550 6.315921 82.464702 -37.687492 -138.964453 13.502943 -10.883985 -5.642247 2.881330 -22.124111 -4.042179 -35.174314 73.571247 -39.374544 6.366422 -13.930466 11.655416 -0.007172 -0.089802 -0.008148 -5.751840 -19.604045 5.174905 87.685010 82.993662 87.511381 0.761740 -22.069529 -17.281945 0.032940 0.021119 0.010536
-34.808020 57.833311 12.581530 178.543360 -49.593174 -3.093595 3.203745 21.670521 2.917101 1.633046 12.463499 1.505994 2.093919 15.512030 1.937756 1.627885 12.436884 1.500163 1.627572 13.354215 0.586339 2.797002 -10.962674 0.744002 1.209044 7.377166 0.553212 -22.404445 -17.196392 -0.765521 -73.087681 -33.152189 142.578840 -6.419144 -5.188821 4.768946 -8.411428 4.290060 0.221469 17.305874 -11.438991 6.341435 82.147464 -37.445503 -138.670531 14.140123 -11.912189 -4.902587 2.862766 -22.087659 -4.035955 -35.206367 73.579917 -39.424124 6.368512 -13.948603 11.659971 -0.012862 -0.080942 -0.008315 -5.740375 -19.567107 5.173566 87.772506 83.002536 87.608354 0.757647 -22.087762 -17.279709 0.035844 0.026642 0.012646
-34.809448 57.831176 12.575188 178.562105 -49.654353 -3.099865 3.179560 21.645167 2.893481 1.617472 12.419749 1.492988 2.086464 15.517370 1.934264 1.617544 12.419795 1.493092 1.687005 13.530312 0.791927 2.860956 -10.652529 0.905555 1.279961 7.362148 0.608326 -22.536000 -17.369304 -0.611130 -72.668458 -32.810660 141.867166 -6.816918 -5.801421 4.511676 -8.359007 4.292940 0.199497 17.437345 -11.556187 6.308262 81.808405 -37.244930 -138.240090 14.648287 -12.942505 -4.178174 2.852475 -22.025121 -4.036884 -35.261918 73.583577 -39.493159 6.372670 -13.964639 11.670981 -0.009558 -0.075619 -0.008519 -5.737586 -19.506830 5.160318 87.858150 83.014371 87.698277 0.759884 -22.101013 -17.275611 0.038804 0.027725 0.012178
-34.810106 57.832842 12.566789 178.588109 -49.749120 -3.120154 3.158274 21.653080 2.879465 1.612518 12.430384 1.493457 2.069845 15.472767 1.919607 1.608565 12.404560 1.487116 1.745053 13.720818 0.962253 2.914159 -10.316452 1.129827 1.360747 7.349138 0.668488 -22.583361 -17.552144 -0.489970 -72.384983 -32.601567 141.018231 -7.184251 -6.375643 4.198118 -8.311005 4.317542 0.185174 17.523892 -11.698337 6.227536 81.503714 -37.106906 -137.711832 15.024017 -13.905656 -3.443039 2.838066 -21.927658 -4.029785 -35.290122 73.583583 -39.528324 6.388234 -13.968364 11.672958 -0.016380 -0.080099 -0.006330 -5.739968 -19.410495 5.152617 87.924001 83.022767 87.766073 0.759002 -22.110585 -17.271137 0.033346 0.027850 0.013009
-34.810365 57.830728 12.563014 178.606133 -49.817614 -3.142322 3.145642 21.631873 2.872239 1.605128 12.416379 1.488976 2.060364 15.455303 1.913573 1.601146 12.390563 1.482560 1.799188 13.928083 1.116166 2.954834 -9.933537 1.401931 1.446811 7.352961 0.727706 -22.576389 -17.747942 -0.391216 -72.248878 -32.552451 140.048950 -7.530325 -6.913206 3.846328 -8.273879 4.339434 0.169875 17.565159 -11.835074 6.113438 81.301353 -37.060822 -137.137615 15.310477 -14.742691 -2.654778 2.826119 -21.858551 -4.014986 -35.312776 73.583690 -39.560485 6.400335 -13.974751 11.684019 -0.024634 -0.079709 -0.009850 -5.735828 -19.342761 5.155695 87.980500 83.035120 87.837482 0.761469 -22.121755 -17.276311 0.041813 0.030037 0.017142
